HIERARCHY
ROOT hip
{
  OFFSET 0 0 0
  CHANNELS 6 Xposition Yposition Zposition Zrotation Yrotation Xrotation
  JOINT abdomen
  {
    OFFSET 0 20.6881 -0.73152
    CHANNELS 3 Zrotation Xrotation Yrotation
    JOINT chest
    {
      OFFSET 0 11.7043 -0.48768
      CHANNELS 3 Zrotation Xrotation Yrotation
      JOINT neck
      {
        OFFSET 0 22.1894 -2.19456
        CHANNELS 3 Zrotation Xrotation Yrotation
        JOINT head
        {
          OFFSET -0.24384 7.07133 1.2192
          CHANNELS 3 Zrotation Xrotation Yrotation
          JOINT leftEye
          {
            OFFSET 4.14528 8.04674 8.04672
            CHANNELS 3 Zrotation Xrotation Yrotation
            End Site
            {
              OFFSET 1 0 0
            }
          }
          JOINT rightEye
          {
            OFFSET -3.6576 8.04674 8.04672
            CHANNELS 3 Zrotation Xrotation Yrotation
            End Site
            {
              OFFSET 1 0 0
            }
          }
        }
      }
      JOINT rCollar
      {
        OFFSET -2.68224 19.2634 -4.8768
        CHANNELS 3 Zrotation Xrotation Yrotation
        JOINT rShldr
        {
          OFFSET -8.77824 -1.95073 1.46304
          CHANNELS 3 Zrotation Xrotation Yrotation
          JOINT rForeArm
          {
            OFFSET -28.1742 -1.7115 0.48768
            CHANNELS 3 Zrotation Xrotation Yrotation
            JOINT rHand
            {
              OFFSET -22.5879 0.773209 7.07136
              CHANNELS 3 Zrotation Xrotation Yrotation
              JOINT rThumb1
              {
                OFFSET -1.2192 -0.487915 3.41376
                CHANNELS 3 Zrotation Xrotation Yrotation
                JOINT rThumb2
                {
                  OFFSET -3.37035 -0.52449 3.41376
                  CHANNELS 3 Zrotation Xrotation Yrotation
                  End Site
                  {
                    OFFSET -1.78271 -1.18214 1.43049
                  }
                }
              }
              JOINT rIndex1
              {
                OFFSET -7.75947 0.938293 5.60832
                CHANNELS 3 Zrotation Xrotation Yrotation
                JOINT rIndex2
                {
                  OFFSET -2.54057 -0.884171 1.56538
                  CHANNELS 3 Zrotation Xrotation Yrotation
                  End Site
                  {
                    OFFSET -1.62519 -0.234802 1.16502
                  }
                }
              }
              JOINT rMid1
              {
                OFFSET -8.24714 1.18213 3.41376
                CHANNELS 3 Zrotation Xrotation Yrotation
                JOINT rMid2
                {
                  OFFSET -3.10165 -0.590103 1.0647
                  CHANNELS 3 Zrotation Xrotation Yrotation
                  End Site
                  {
                    OFFSET -2.48547 -0.328903 0.83742
                  }
                }
              }
              JOINT rRing1
              {
                OFFSET -8.82822 0.546677 1.51678
                CHANNELS 3 Zrotation Xrotation Yrotation
                JOINT rRing2
                {
                  OFFSET -2.60934 -0.819778 -0.0198488
                  CHANNELS 3 Zrotation Xrotation Yrotation
                  End Site
                  {
                    OFFSET -2.33842 -0.294052 0.168128
                  }
                }
              }
              JOINT rPinky1
              {
                OFFSET -8.27202 -0.0477905 -0.4584
                CHANNELS 3 Zrotation Xrotation Yrotation
                JOINT rPinky2
                {
                  OFFSET -1.82734 -0.647385 -0.700984
                  CHANNELS 3 Zrotation Xrotation Yrotation
                  End Site
                  {
                    OFFSET -1.69225 -0.51767 -0.607171
                  }
                }
              }
            }
          }
        }
      }
      JOINT lCollar
      {
        OFFSET 2.68224 19.2634 -4.8768
        CHANNELS 3 Zrotation Xrotation Yrotation
        JOINT lShldr
        {
          OFFSET 8.77824 -1.95073 1.46304
          CHANNELS 3 Zrotation Xrotation Yrotation
          JOINT lForeArm
          {
            OFFSET 28.1742 -1.7115 0.48768
            CHANNELS 3 Zrotation Xrotation Yrotation
            JOINT lHand
            {
              OFFSET 22.5879 0.773209 7.07136
              CHANNELS 3 Zrotation Xrotation Yrotation
              JOINT lThumb1
              {
                OFFSET 1.2192 -0.487915 3.41376
                CHANNELS 3 Zrotation Xrotation Yrotation
                JOINT lThumb2
                {
                  OFFSET 3.37035 -0.52449 3.41376
                  CHANNELS 3 Zrotation Xrotation Yrotation
                  End Site
                  {
                    OFFSET 1.78271 -1.18214 1.43049
                  }
                }
              }
              JOINT lIndex1
              {
                OFFSET 7.75947 0.938293 5.60832
                CHANNELS 3 Zrotation Xrotation Yrotation
                JOINT lIndex2
                {
                  OFFSET 2.54057 -0.884171 1.56538
                  CHANNELS 3 Zrotation Xrotation Yrotation
                  End Site
                  {
                    OFFSET 1.62519 -0.234802 1.16502
                  }
                }
              }
              JOINT lMid1
              {
                OFFSET 8.24714 1.18213 3.41376
                CHANNELS 3 Zrotation Xrotation Yrotation
                JOINT lMid2
                {
                  OFFSET 3.10165 -0.590103 1.0647
                  CHANNELS 3 Zrotation Xrotation Yrotation
                  End Site
                  {
                    OFFSET 2.48547 -0.328903 0.83742
                  }
                }
              }
              JOINT lRing1
              {
                OFFSET 8.82822 0.546677 1.51678
                CHANNELS 3 Zrotation Xrotation Yrotation
                JOINT lRing2
                {
                  OFFSET 2.60934 -0.819778 -0.0198488
                  CHANNELS 3 Zrotation Xrotation Yrotation
                  End Site
                  {
                    OFFSET 2.33842 -0.294052 0.168128
                  }
                }
              }
              JOINT lPinky1
              {
                OFFSET 8.27202 -0.0477905 -0.4584
                CHANNELS 3 Zrotation Xrotation Yrotation
                JOINT lPinky2
                {
                  OFFSET 1.82734 -0.647385 -0.700984
                  CHANNELS 3 Zrotation Xrotation Yrotation
                  End Site
                  {
                    OFFSET 1.69225 -0.51767 -0.607171
                  }
                }
              }
            }
          }
        }
      }
    }
  }
  JOINT rButtock
  {
    OFFSET -8.77824 4.35084 1.2192
    CHANNELS 3 Zrotation Xrotation Yrotation
    JOINT rThigh
    {
      OFFSET 0 -1.70687 -2.19456
      CHANNELS 3 Zrotation Xrotation Yrotation
      JOINT rShin
      {
        OFFSET 0 -36.8199 0.73152
        CHANNELS 3 Zrotation Xrotation Yrotation
        JOINT rFoot
        {
          OFFSET 0.73152 -45.1104 -5.12064
          CHANNELS 3 Zrotation Xrotation Yrotation
          End Site
          {
            OFFSET -1.1221 -3.69964 12.103
          }
        }
      }
    }
  }
  JOINT lButtock
  {
    OFFSET 8.77824 4.35084 1.2192
    CHANNELS 3 Zrotation Xrotation Yrotation
    JOINT lThigh
    {
      OFFSET 0 -1.70687 -2.19456
      CHANNELS 3 Zrotation Xrotation Yrotation
      JOINT lShin
      {
        OFFSET 0 -36.8199 0.73152
        CHANNELS 3 Zrotation Xrotation Yrotation
        JOINT lFoot
        {
          OFFSET -0.73152 -45.1104 -5.12064
          CHANNELS 3 Zrotation Xrotation Yrotation
          End Site
          {
            OFFSET 1.1221 -3.69964 12.103
          }
        }
      }
    }
  }
}
MOTION
Frames:	6
Frame Time:	0.00833333
-3.51292 85.2343 65.571 0.0 0.0 0.0 0.705187 -0.00371385 0.0199543 0.194579 -0.00526914 0.033714 -1.89233e-14 0.0 7.45442e-17 -5.67468e-14 3.18055e-15 1.45982e-16 -0.0 0.0 0.0 -0.0 0.0 0.0 -9.39406e-15 2.6207e-17 1.49089e-16 -1.96891e-13 3.91357e-16 7.95139e-16 -3.42267e-12 1.04223e-12 3.81667e-14 -3.92097e-11 -9.36947e-13 5.08889e-14 -9.24887e-11 2.26676e-13 2.06736e-13 -1.59735e-10 3.97569e-13 3.54632e-13 -9.24822e-11 2.27807e-13 1.94014e-13 7.73091 5.47488 0.417314 -9.24894e-11 2.26615e-13 2.00375e-13 2.90554 0.965183 0.102902 -9.24851e-11 2.26217e-13 2.05941e-13 10.2786 0.731801 0.0259123 -9.24965e-11 2.27012e-13 2.16278e-13 2.22167 -0.733487 -0.20892 -9.4911e-15 2.6207e-17 -1.49089e-16 -2.00791e-13 7.01958e-16 -7.95139e-16 -3.42799e-12 -1.00665e-12 6.36111e-14 -3.9204e-11 1.1171e-12 3.81667e-14 -9.24817e-11 2.3472e-13 2.09917e-13 -1.59711e-10 3.97569e-13 3.68944e-13 -9.24858e-11 2.34566e-13 2.16278e-13 -7.73091 5.47488 -0.417314 -9.24819e-11 2.34765e-13 2.06736e-13 -2.90554 0.965183 -0.102902 -9.24842e-11 2.34367e-13 2.09121e-13 -10.2786 0.731801 -0.0259123 -9.24762e-11 2.37349e-13 2.03556e-13 -2.22167 -0.733487 0.20892 -2.03217e-16 0.0 -3.88251e-19 1.03771 -4.84839 -0.0878827 -0.00129082 3.2299 0.00171824 -0.508019 1.61857 0.0909531 2.03217e-16 0.0 3.88251e-19 0.0358492 -2.16336 0.0186159 0.00864515 -1.63356 0.0730514 0.498129 3.79688 -0.134154
-4.37022 84.015 62.8928 -4.3519 1.5648 9.1795 1.78225 -2.4245 -0.358455 1.18949 0.00790218 -0.0931252 -0.145036 -0.348063 -0.205299 0.124833 -0.818247 -0.360201 -0.0 0.0 0.0 -0.0 0.0 0.0 -8.12414e-15 6.85879e-14 -2.00897e-14 21.0774 5.2087 0.276296 -3.71337 -1.59775 5.89345 0.0233355 -3.38989 -0.473411 -1.67343e-10 1.83498e-10 -5.88533e-10 -2.85258e-10 3.12376e-10 -1.01817e-09 -1.67339e-10 1.83499e-10 -5.88546e-10 7.73091 5.47488 0.417314 -1.67344e-10 1.83498e-10 -5.88536e-10 2.90554 0.965183 0.102902 -1.67339e-10 1.83498e-10 -5.88534e-10 10.2786 0.731801 0.0259123 -1.67349e-10 1.83498e-10 -5.88525e-10 2.22167 -0.733487 -0.20892 -8.17791e-15 6.85899e-14 -2.03141e-14 -22.8775 6.89925 0.0274311 4.07144 -1.82136 -6.38981 -0.0107044 2.29534 -0.321654 -2.19842e-10 2.27564e-10 4.36831e-10 -3.76196e-10 3.96795e-10 7.56555e-10 -2.19843e-10 2.27566e-10 4.36834e-10 -7.73091 5.47488 -0.417314 -2.1984e-10 2.27568e-10 4.36828e-10 -2.90554 0.965183 -0.102902 -2.19843e-10 2.27568e-10 4.3683e-10 -10.2786 0.731801 -0.0259123 -2.19838e-10 2.2757e-10 4.36825e-10 -2.22167 -0.733487 0.20892 -2.03217e-16 0.0 -3.88251e-19 2.2203 -6.10987 -0.14278 -0.000800845 5.18345 0.0394956 -0.660108 -0.974555 -3.39255 2.03217e-16 0.0 3.88251e-19 1.91089 -4.54871 -0.752843 0.00421423 2.91472 -0.0190088 0.602782 -0.374257 1.58596
-4.32814 84.0084 62.8326 -4.1515 1.4959 9.2226 2.88772 -4.98773 -0.759779 2.24261 0.0169794 -0.226858 -0.302147 -0.714755 -0.42162 0.246505 -1.68261 -0.739436 -0.0 0.0 0.0 -0.0 0.0 0.0 -7.92382e-15 1.44812e-13 -4.22417e-14 43.3039 10.7074 0.56806 -7.2828 -3.22993 12.1371 -0.0133006 -6.96747 -0.978679 -2.46377e-10 3.87118e-10 -1.24023e-09 -4.17618e-10 6.59058e-10 -2.14557e-09 -2.46374e-10 3.87119e-10 -1.24024e-09 7.73091 5.47488 0.417314 -2.46378e-10 3.87119e-10 -1.24023e-09 2.90554 0.965183 0.102902 -2.46372e-10 3.87118e-10 -1.24023e-09 10.2786 0.731801 0.0259123 -2.4638e-10 3.87118e-10 -1.24022e-09 2.22167 -0.733487 -0.20892 -7.93291e-15 1.44816e-13 -4.23846e-14 -47.0751 14.1946 0.0651612 7.93572 -3.67055 -13.1637 0.00608531 4.7202 -0.663213 -3.58758e-10 4.85016e-10 9.25689e-10 -6.12232e-10 8.4564e-10 1.60316e-09 -3.58756e-10 4.85021e-10 9.25688e-10 -7.73091 5.47488 -0.417314 -3.58755e-10 4.85023e-10 9.25686e-10 -2.90554 0.965183 -0.102902 -3.58758e-10 4.85024e-10 9.25688e-10 -10.2786 0.731801 -0.0259123 -3.58756e-10 4.85026e-10 9.25684e-10 -2.22167 -0.733487 0.20892 -2.03217e-16 0.0 -3.88251e-19 3.468 -7.4406 -0.204831 -0.00308226 7.2464 0.0797083 -1.16347 -3.69247 -7.08873 2.03217e-16 0.0 3.88251e-19 3.82303 -7.06814 -1.57613 0.0154613 7.7231 -0.117326 0.98637 -4.78306 3.41426
-4.3666 84.0118 62.7806 -4.283 1.3482 9.186 3.83981 -7.26482 -1.12333 3.1795 0.0342442 -0.346804 -0.442593 -1.04414 -0.615988 0.343612 -2.45435 -1.08149 -0.0 0.0 0.0 -0.0 0.0 0.0 -5.58431e-15 2.05711e-13 -6.05672e-14 63.0767 15.6246 0.857141 -10.1688 -4.59077 17.7322 -0.100312 -10.1669 -1.44037 -3.17053e-10 5.5004e-10 -1.76601e-09 -5.36302e-10 9.36332e-10 -3.05523e-09 -3.17052e-10 5.50042e-10 -1.76603e-09 7.73091 5.47488 0.417314 -3.17054e-10 5.50042e-10 -1.76601e-09 2.90554 0.965183 0.102902 -3.17048e-10 5.50041e-10 -1.76601e-09 10.2786 0.731801 0.0259123 -3.17054e-10 5.5004e-10 -1.76601e-09 2.22167 -0.733487 -0.20892 -5.55153e-15 2.05717e-13 -6.06441e-14 -68.6534 20.6977 0.087334 11.0166 -5.19279 -19.2418 0.0456762 6.88515 -0.971193 -4.74561e-10 6.82224e-10 1.31007e-09 -8.09167e-10 1.18959e-09 2.26893e-09 -4.74557e-10 6.8223e-10 1.31007e-09 -7.73091 5.47488 -0.417314 -4.74557e-10 6.82234e-10 1.31007e-09 -2.90554 0.965183 -0.102902 -4.74561e-10 6.82235e-10 1.31007e-09 -10.2786 0.731801 -0.0259123 -4.74562e-10 6.82237e-10 1.31007e-09 -2.22167 -0.733487 0.20892 -2.03217e-16 0.0 -3.88251e-19 4.57814 -8.63277 -0.253643 -0.00764178 9.09052 0.116029 -1.9089 -6.06508 -10.417 2.03217e-16 0.0 3.88251e-19 5.46598 -9.31308 -2.31921 0.0398074 12.0112 -0.20754 1.56827 -8.68322 5.08391
-4.35262 84.0095 62.7494 -4.2292 1.3584 9.2006 4.47676 -8.82774 -1.38474 3.82576 0.0719782 -0.432283 -0.536179 -1.28029 -0.755389 0.400832 -2.99488 -1.32974 -0.0 0.0 0.0 -0.0 0.0 0.0 2.1032e-15 2.28301e-13 -6.93262e-14 76.8192 19.0894 1.11477 -12.0242 -5.46572 21.6569 -0.193119 -12.4234 -1.77417 -3.66836e-10 6.11219e-10 -1.97701e-09 -6.20797e-10 1.04008e-09 -3.42056e-09 -3.66836e-10 6.11221e-10 -1.97703e-09 7.73091 5.47488 0.417314 -3.66837e-10 6.11221e-10 -1.97701e-09 2.90554 0.965183 0.102902 -3.6683e-10 6.1122e-10 -1.97701e-09 10.2786 0.731801 0.0259123 -3.66836e-10 6.11219e-10 -1.97701e-09 2.22167 -0.733487 -0.20892 2.17077e-15 2.28308e-13 -6.93758e-14 -83.659 25.2206 0.0626616 12.9739 -6.15546 -23.5113 0.0873532 8.40113 -1.18932 -5.32584e-10 7.28821e-10 1.43327e-09 -9.08349e-10 1.27131e-09 2.48261e-09 -5.32578e-10 7.28828e-10 1.43326e-09 -7.73091 5.47488 -0.417314 -5.32579e-10 7.28832e-10 1.43327e-09 -2.90554 0.965183 -0.102902 -5.32584e-10 7.28833e-10 1.43327e-09 -10.2786 0.731801 -0.0259123 -5.32585e-10 7.28834e-10 1.43326e-09 -2.22167 -0.733487 0.20892 -2.03217e-16 0.0 -3.88251e-19 5.35034 -9.47855 -0.268409 -0.0123746 10.3876 0.1418 -2.59254 -7.67048 -12.7637 2.03217e-16 0.0 3.88251e-19 6.57448 -10.8775 -2.84116 0.065297 14.9987 -0.272661 2.1095 -11.3464 6.28879
-4.35423 84.0112 62.7194 -4.1871 1.2666 9.1756 4.69275 -9.39517 -1.49789 4.06536 0.154851 -0.469971 -0.554818 -1.38778 -0.81899 0.4009 -3.22081 -1.45086 -0.0 0.0 0.0 -0.0 0.0 0.0 2.05406e-14 1.98698e-13 -6.46186e-14 82.1674 20.5274 1.32844 -12.723 -5.79253 23.2113 -0.239093 -13.3694 -1.91646 -4.05763e-10 5.51055e-10 -1.75976e-09 -6.89054e-10 9.37216e-10 -3.04548e-09 -4.05764e-10 5.51057e-10 -1.75978e-09 7.73091 5.47488 0.417314 -4.05764e-10 5.51057e-10 -1.75976e-09 2.90554 0.965183 0.102902 -4.05757e-10 5.51056e-10 -1.75976e-09 10.2786 0.731801 0.0259123 -4.05763e-10 5.51056e-10 -1.75976e-09 2.22167 -0.733487 -0.20892 2.06398e-14 1.98705e-13 -6.47036e-14 -89.439 26.9636 -0.0496912 13.7065 -6.51103 -25.2051 0.107302 9.0133 -1.27809 -5.24803e-10 5.57698e-10 1.19095e-09 -8.96706e-10 9.74158e-10 2.06375e-09 -5.24798e-10 5.57704e-10 1.19094e-09 -7.73091 5.47488 -0.417314 -5.24798e-10 5.57707e-10 1.19095e-09 -2.90554 0.965183 -0.102902 -5.24803e-10 5.57709e-10 1.19095e-09 -10.2786 0.731801 -0.0259123 -5.24803e-10 5.57709e-10 1.19094e-09 -2.22167 -0.733487 0.20892 -2.03217e-16 0.0 -3.88251e-19 5.64855 -9.84836 -0.228944 -0.0149212 10.9297 0.152499 -2.89566 -8.27309 -13.69 2.03217e-16 0.0 3.88251e-19 6.99272 -11.4923 -3.04267 0.0776403 16.1621 -0.298569 2.34799 -12.2902 6.78959
